<svg xmlns="http://www.w3.org/2000/svg" xmlns:svg="http://www.w3.org/2000/svg" xmlns:xlink="http://www.w3.org/1999/xlink" id="Layer_1" width="91" height="90.999" x="0" y="0" enable-background="new 0 0 305 97" version="1.1" viewBox="0 0 91 90.999" xml:space="preserve"><metadata id="metadata3171"/><path id="path3147" stroke-miterlimit="8" d="m 77.31975,13.67975 c 17.574,17.574 17.574,46.066 0,63.639 -17.573,17.574 -46.065,17.574 -63.64,0 -17.573,-17.573 -17.573,-46.065 0,-63.639 17.575,-17.573 46.067,-17.573 63.64,0" style="fill:none;stroke:#149ad6;stroke-linejoin:round;stroke-miterlimit:8;stroke-dasharray:2,2"/><g id="g3149" transform="translate(-209.10325,-3.12025)"><defs id="defs3151"><rect id="SVGID_9_" width="29" height="35" x="238.519" y="30"/></defs><clipPath id="SVGID_10_"><use id="use3155" width="305" height="97" x="0" y="0" overflow="visible" xlink:href="#SVGID_9_" style="overflow:visible"/></clipPath><g id="g3157" clip-path="url(#SVGID_10_)"><defs id="defs3159"><rect id="SVGID_11_" width="29" height="35" x="238.519" y="30"/></defs><clipPath id="SVGID_12_"><use id="use3163" width="305" height="97" x="0" y="0" overflow="visible" xlink:href="#SVGID_11_" style="overflow:visible"/></clipPath><path id="path3165" d="m 266.161,62.284 h -4.022 c -0.128,-0.894 -0.297,-2.015 -0.526,-3.46 -0.508,-3.213 -1.253,-7.848 -2.247,-13.913 v -8.193 h 1.47 L 252.818,30 l -7.604,6.718 h 1.51 v 8.349 h 0.051 c -1.528,8.554 -2.494,14.287 -2.893,17.218 h -4.003 c -0.756,0 -1.359,0.606 -1.359,1.362 0,0.748 0.604,1.354 1.359,1.354 h 26.282 c 0.751,0 1.358,-0.605 1.358,-1.354 0,-0.756 -0.608,-1.363 -1.358,-1.363 m -6.727,-2.972 -4.933,-5.56 3.286,-3.71 1.647,9.27 z m -6.309,-6.762 -4.443,-4.932 0.335,-2.237 7.97,-0.019 0.385,2.352 -4.247,4.836 z m -4.581,-15.814 h 8.954 v 2.816 h -8.954 v -2.816 z m -0.393,12.873 3.834,4.253 -5.807,6.439 1.973,-10.692 z m -1.569,12.675 6.516,-7.078 6.42,7.078 h -12.936 z" clip-path="url(#SVGID_12_)" style="fill:#149ad6"/></g></g></svg>